# xmcd
#
# Track frame offsets:
#	150
#	24106
#	40523
#	69153
#	94349
#	120137
#	130822
#	147468
#	166442
#
# Disc length: 2610 seconds
# Revision: 0
# Processed by: cddbd v1.5.2PL0 Copyright (c) Steve Scherf et al.
# Submitted via: dBpowerAMP V12.0
#
DISCID=690a3009
DTITLE=Lambert and Walz - Lambert and Walz
DYEAR=2016
DGENRE=Blues
TTITLE0=East Virginia Blues
TTITLE1=Rye Wiskey
TTITLE2=Careless Love
TTITLE3=Deep Ellum Blues
TTITLE4=Make Me A Pallet
TTITLE5=I'll Never Love Another
TTITLE6=Handsome Molly
TTITLE7=The Whistle's Lonesome Sound
TTITLE8=Bill Cheatham/Hand Me Down My Walkin Cane
EXTD=
EXTT0=
EXTT1=
EXTT2=
EXTT3=
EXTT4=
EXTT5=
EXTT6=
EXTT7=
EXTT8=
PLAYORDER=
